<svg width="351" height="145" viewBox="0 0 351 145" fill="none" xmlns="http://www.w3.org/2000/svg">
<path d="M76.6 144.6C72.6 144.6 69.4667 143.533 67.2 141.4C64.9333 139.133 63.8 135.933 63.8 131.8V116.2H14.4C10.2667 116.2 6.93333 115.333 4.4 113.6C2 111.867 0.8 109.133 0.8 105.4C0.8 103.267 1.33333 100.933 2.4 98.4C3.6 95.8667 5.66667 92.5333 8.6 88.4L63.4 9C65.2667 6.19999 67.3333 4.06666 69.6 2.6C71.8667 1.13332 74.4667 0.399988 77.4 0.399988C80.8667 0.399988 83.7333 1.46666 86 3.59999C88.2667 5.59999 89.4 8.79999 89.4 13.2V95H99.2C103.067 95 105.933 95.9333 107.8 97.8C109.8 99.5333 110.8 102.133 110.8 105.6C110.8 109.067 109.8 111.733 107.8 113.6C105.933 115.333 103.067 116.2 99.2 116.2H89.4V131.8C89.4 135.933 88.2667 139.133 86 141.4C83.7333 143.533 80.6 144.6 76.6 144.6ZM63.8 95V32.6H69.6L22.4 101.8V95H63.8ZM173.922 145C157.255 145 144.522 138.733 135.722 126.2C126.922 113.533 122.522 95.5333 122.522 72.2C122.522 56.4667 124.455 43.2667 128.322 32.6C132.322 21.8 138.122 13.6667 145.722 8.2C153.455 2.73333 162.855 -6.67572e-06 173.922 -6.67572e-06C190.722 -6.67572e-06 203.455 6.13333 212.122 18.4C220.922 30.6667 225.322 48.5333 225.322 72C225.322 87.6 223.322 100.867 219.322 111.8C215.455 122.6 209.722 130.867 202.122 136.6C194.522 142.2 185.122 145 173.922 145ZM173.922 124C182.989 124 189.655 119.8 193.922 111.4C198.322 103 200.522 89.8667 200.522 72C200.522 54.1333 198.322 41.2 193.922 33.2C189.655 25.0667 182.989 21 173.922 21C164.989 21 158.322 25.0667 153.922 33.2C149.522 41.2 147.322 54.1333 147.322 72C147.322 89.8667 149.522 103 153.922 111.4C158.322 119.8 164.989 124 173.922 124ZM316.444 144.6C312.444 144.6 309.31 143.533 307.044 141.4C304.777 139.133 303.644 135.933 303.644 131.8V116.2H254.244C250.11 116.2 246.777 115.333 244.244 113.6C241.844 111.867 240.644 109.133 240.644 105.4C240.644 103.267 241.177 100.933 242.244 98.4C243.444 95.8667 245.51 92.5333 248.444 88.4L303.244 9C305.11 6.19999 307.177 4.06666 309.444 2.6C311.71 1.13332 314.31 0.399988 317.244 0.399988C320.71 0.399988 323.577 1.46666 325.844 3.59999C328.11 5.59999 329.244 8.79999 329.244 13.2V95H339.044C342.91 95 345.777 95.9333 347.644 97.8C349.644 99.5333 350.644 102.133 350.644 105.6C350.644 109.067 349.644 111.733 347.644 113.6C345.777 115.333 342.91 116.2 339.044 116.2H329.244V131.8C329.244 135.933 328.11 139.133 325.844 141.4C323.577 143.533 320.444 144.6 316.444 144.6ZM303.644 95V32.6H309.444L262.244 101.8V95H303.644Z" fill="white"/>
</svg>
