<svg width="339" height="145" viewBox="0 0 339 145" fill="none" xmlns="http://www.w3.org/2000/svg">
<path d="M48.2 145C41.1333 145 33.9333 144.067 26.6 142.2C19.2667 140.333 12.5333 137.467 6.4 133.6C3.86667 132 2.13333 130.133 1.2 128C0.400001 125.733 0.200001 123.533 0.600001 121.4C1.13333 119.133 2.13333 117.267 3.6 115.8C5.2 114.2 7.06667 113.267 9.2 113C11.4667 112.733 13.9333 113.333 16.6 114.8C21.5333 117.6 26.5333 119.733 31.6 121.2C36.6667 122.667 42.0667 123.4 47.8 123.4C53.4 123.4 58.2 122.4 62.2 120.4C66.2 118.4 69.2667 115.6 71.4 112C73.5333 108.4 74.6 104.2 74.6 99.4C74.6 91.9333 72.3333 85.9333 67.8 81.4C63.2667 76.7333 57.0667 74.4 49.2 74.4C44.9333 74.4 40.8 75.1333 36.8 76.6C32.8 77.9333 28.8667 80.3333 25 83.8C23.8 84.8667 22.2667 85.9333 20.4 87C18.5333 87.9333 16.5333 88.4 14.4 88.4C11.0667 88.4 8.53333 87.5333 6.8 85.8C5.06667 84.0667 4.2 81.6667 4.2 78.6V13.2C4.2 9.59999 5.13333 6.86666 7 4.99999C9 2.99999 11.8 1.99999 15.4 1.99999H81.2C84.8 1.99999 87.5333 2.93332 89.4 4.79999C91.4 6.53333 92.4 9.13333 92.4 12.6C92.4 15.9333 91.4 18.5333 89.4 20.4C87.5333 22.2667 84.8 23.2 81.2 23.2H29.2V68H22.6C26.0667 63.3333 30.6667 59.7333 36.4 57.2C42.1333 54.6667 48.4 53.4 55.2 53.4C64.1333 53.4 71.8667 55.3333 78.4 59.2C85.0667 62.9333 90.2 68.2 93.8 75C97.5333 81.6667 99.4 89.4667 99.4 98.4C99.4 107.6 97.3333 115.733 93.2 122.8C89.0667 129.733 83.1333 135.2 75.4 139.2C67.8 143.067 58.7333 145 48.2 145ZM166.922 145C150.255 145 137.522 138.733 128.722 126.2C119.922 113.533 115.522 95.5333 115.522 72.2C115.522 56.4667 117.455 43.2667 121.322 32.6C125.322 21.8 131.122 13.6667 138.722 8.2C146.455 2.73333 155.855 -6.67572e-06 166.922 -6.67572e-06C183.722 -6.67572e-06 196.455 6.13333 205.122 18.4C213.922 30.6667 218.322 48.5333 218.322 72C218.322 87.6 216.322 100.867 212.322 111.8C208.455 122.6 202.722 130.867 195.122 136.6C187.522 142.2 178.122 145 166.922 145ZM166.922 124C175.989 124 182.655 119.8 186.922 111.4C191.322 103 193.522 89.8667 193.522 72C193.522 54.1333 191.322 41.2 186.922 33.2C182.655 25.0667 175.989 21 166.922 21C157.989 21 151.322 25.0667 146.922 33.2C142.522 41.2 140.322 54.1333 140.322 72C140.322 89.8667 142.522 103 146.922 111.4C151.322 119.8 157.989 124 166.922 124ZM286.844 145C270.177 145 257.444 138.733 248.644 126.2C239.844 113.533 235.444 95.5333 235.444 72.2C235.444 56.4667 237.377 43.2667 241.244 32.6C245.244 21.8 251.044 13.6667 258.644 8.2C266.377 2.73333 275.777 -6.67572e-06 286.844 -6.67572e-06C303.644 -6.67572e-06 316.377 6.13333 325.044 18.4C333.844 30.6667 338.244 48.5333 338.244 72C338.244 87.6 336.244 100.867 332.244 111.8C328.377 122.6 322.644 130.867 315.044 136.6C307.444 142.2 298.044 145 286.844 145ZM286.844 124C295.91 124 302.577 119.8 306.844 111.4C311.244 103 313.444 89.8667 313.444 72C313.444 54.1333 311.244 41.2 306.844 33.2C302.577 25.0667 295.91 21 286.844 21C277.91 21 271.244 25.0667 266.844 33.2C262.444 41.2 260.244 54.1333 260.244 72C260.244 89.8667 262.444 103 266.844 111.4C271.244 119.8 277.91 124 286.844 124Z" fill="white"/>
</svg>
