<svg width="14" height="16" viewBox="0 0 14 16" fill="none" xmlns="http://www.w3.org/2000/svg">
<path d="M7.21575 14.4978L6.81761 13.5804L6.81834 13.5801L7.21575 14.4978ZM7.21959 14.4961L6.81493 13.5816L6.81509 13.5816L7.21959 14.4961ZM7.2398 14.4866L6.79776 13.5897L6.79777 13.5896L7.2398 14.4866ZM7.3706 14.396L6.68716 13.666C7.09026 13.2886 7.72295 13.3094 8.10044 13.7124C8.47793 14.1154 8.45732 14.7481 8.0544 15.1257L7.3706 14.396ZM7.35897 14.4066L8.0211 15.156C7.60729 15.5216 6.97545 15.4826 6.60973 15.0689C6.24401 14.6552 6.28286 14.0233 6.69651 13.6575L7.35897 14.4066ZM7.38031 14.3867L8.08148 15.0997L8.08148 15.0997L7.38031 14.3867ZM12.3803 9.46951L13.0815 10.1825L13.0815 10.1825L12.3803 9.46951ZM12.3867 8.70249L11.6737 9.40367L11.6737 9.40367L12.3867 8.70249ZM11.6197 8.69608L12.3209 9.40907L12.3209 9.40907L11.6197 8.69608ZM7.54238 12.7059L8.24356 13.4189C7.95627 13.7014 7.52747 13.7839 7.15585 13.6281C6.78422 13.4724 6.54238 13.1088 6.54238 12.7059H7.54238ZM6.45762 12.7059H7.45762C7.45762 13.1088 7.21578 13.4724 6.84415 13.6281C6.47253 13.7839 6.04373 13.7014 5.75644 13.4189L6.45762 12.7059ZM2.38031 8.69608L1.67913 9.40907L1.67913 9.40907L2.38031 8.69608ZM1.61969 9.46951L2.32087 8.75652L2.32087 8.75652L1.61969 9.46951ZM6.6177 14.3847L7.31889 13.6717L7.32254 13.6754L6.6177 14.3847ZM6.63153 14.398L7.31106 13.6644L7.31144 13.6647L6.63153 14.398ZM6.74769 14.4803L7.21296 13.5951L7.21309 13.5952L6.74769 14.4803ZM6.77766 14.4949L7.18737 13.5827L7.18739 13.5827L6.77766 14.4949ZM6.78534 14.4982L7.1808 13.5798L7.18146 13.58L6.78534 14.4982ZM7.61388 15.4151C7.42446 15.4973 7.21619 15.5424 7 15.5424V13.5424C6.93716 13.5424 6.87479 13.5556 6.81761 13.5804L7.61388 15.4151ZM6.81834 13.5801C6.81603 13.5811 6.8145 13.5818 6.81493 13.5816L7.62425 15.4106C7.62212 15.4115 7.61803 15.4133 7.61315 15.4154L6.81834 13.5801ZM6.81509 13.5816C6.80929 13.5841 6.80351 13.5868 6.79776 13.5897L7.68185 15.3836C7.66273 15.3931 7.64347 15.4021 7.62409 15.4106L6.81509 13.5816ZM6.79777 13.5896C6.75733 13.6096 6.71979 13.6354 6.68681 13.6663L8.0544 15.1257C7.94171 15.2313 7.81587 15.3176 7.68184 15.3836L6.79777 13.5896ZM8.05405 15.126C8.04318 15.1362 8.03219 15.1462 8.0211 15.156L6.69683 13.6572C6.6936 13.6601 6.69038 13.663 6.68716 13.666L8.05405 15.126ZM6.69651 13.6575C6.69053 13.6628 6.68474 13.6682 6.67913 13.6737L8.08148 15.0997C8.06192 15.1189 8.04189 15.1376 8.02143 15.1557L6.69651 13.6575ZM6.67913 13.6737L11.6791 8.75652L13.0815 10.1825L8.08148 15.0997L6.67913 13.6737ZM11.6791 8.75652C11.4989 8.93373 11.4965 9.22347 11.6737 9.40367L13.0997 8.00131C13.697 8.60866 13.6888 9.58521 13.0815 10.1825L11.6791 8.75652ZM11.6737 9.40367C11.8509 9.58386 12.1407 9.58628 12.3209 9.40907L10.9185 7.9831C11.5259 7.38581 12.5024 7.39396 13.0997 8.00131L11.6737 9.40367ZM12.3209 9.40907L8.24356 13.4189L6.8412 11.9929L10.9185 7.9831L12.3209 9.40907ZM8.54238 2L8.54238 12.7059H6.54238L6.54238 2H8.54238ZM7 0.457617C7.85183 0.457617 8.54238 1.14817 8.54238 2H6.54238C6.54238 2.25273 6.74726 2.45762 7 2.45762V0.457617ZM5.45762 2C5.45762 1.14817 6.14816 0.457617 7 0.457617V2.45762C7.25273 2.45762 7.45762 2.25273 7.45762 2H5.45762ZM5.45762 12.7059L5.45762 2H7.45762L7.45762 12.7059H5.45762ZM3.08149 7.9831L7.15879 11.9929L5.75644 13.4189L1.67913 9.40907L3.08149 7.9831ZM0.900302 8.00131C1.49759 7.39396 2.47414 7.38581 3.08149 7.9831L1.67913 9.40907C1.85933 9.58628 2.14906 9.58386 2.32627 9.40367L0.900302 8.00131ZM0.918515 10.1825C0.311168 9.58521 0.303015 8.60866 0.900302 8.00131L2.32627 9.40367C2.50349 9.22347 2.50107 8.93373 2.32087 8.75652L0.918515 10.1825ZM5.91652 15.0977L0.918514 10.1825L2.32087 8.75652L7.31888 13.6718L5.91652 15.0977ZM5.95199 15.1316C5.93869 15.1193 5.92565 15.1068 5.91287 15.0941L7.32254 13.6754C7.31881 13.6717 7.31499 13.668 7.31106 13.6644L5.95199 15.1316ZM7.31144 13.6647C7.28188 13.6373 7.24866 13.6139 7.21296 13.5951L6.28243 15.3655C6.16405 15.3032 6.0526 15.2249 5.95161 15.1313L7.31144 13.6647ZM6.36795 15.4071C6.33907 15.3941 6.31051 15.3802 6.2823 15.3654L7.21309 13.5952C7.20462 13.5907 7.19604 13.5865 7.18737 13.5827L6.36795 15.4071ZM6.38988 15.4167C6.38255 15.4136 6.37524 15.4104 6.36793 15.4071L7.18739 13.5827C7.18519 13.5817 7.18299 13.5807 7.1808 13.5798L6.38988 15.4167ZM7 15.5424C6.785 15.5424 6.57781 15.4978 6.38922 15.4164L7.18146 13.58C7.12453 13.5555 7.06249 13.5424 7 13.5424V15.5424Z" fill="white"/>
</svg>
