<svg width="24" height="22" viewBox="0 0 24 22" xmlns="http://www.w3.org/2000/svg">
    <path d="M16.865 0a1 1 0 0 1 1 1l-.001 1.968h3.541A2.595 2.595 0 0 1 24 5.564v13.842A2.595 2.595 0 0 1 21.405 22H2.595A2.595 2.595 0 0 1 0 19.405V5.563A2.595 2.595 0 0 1 2.595 2.97l2.891-.001V1a1 1 0 1 1 2 0v1.968h8.378V1a1 1 0 0 1 1-1zM5.486 4.968H2.595A.595.595 0 0 0 2 5.564v13.842c0 .329.266.595.595.595h18.81a.595.595 0 0 0 .595-.595V5.563a.595.595 0 0 0-.595-.594l-3.541-.001v2.595a1 1 0 0 1-2 0V4.967H7.486v2.595a1 1 0 1 1-2 0V4.967z" fill="#689DC5" fill-rule="nonzero"/>
</svg>
