<svg width="32" height="28" viewBox="0 0 32 28" xmlns="http://www.w3.org/2000/svg">
    <path d="M25.326 22.75c-1.45 0-2.576 1.175-2.576 2.625S23.925 28 25.326 28c1.4 0 2.576-1.175 2.576-2.625s-1.078-2.625-2.576-2.625zm-15.75 0C8.126 22.75 7 23.925 7 25.375S8.176 28 9.576 28c1.4 0 2.576-1.175 2.576-2.625s-1.078-2.625-2.576-2.625zM31.145 2.446a1.737 1.737 0 0 0-1.398-.696H6.623l-.082-.683A1.317 1.317 0 0 0 5.25 0H1.263C.588 0 0 .588 0 1.263c0 .676.588 1.362 1.263 1.362h2.852L7.41 19.934C7.58 20.552 8.121 21 8.75 21h17.938c.724 0 1.312-.588 1.312-1.263 0-.777-.585-1.362-1.313-1.362H9.838l-.503-2.625h17.413a1.75 1.75 0 0 0 1.682-1.27l3-10.45c.152-.582.048-1.14-.285-1.584z" fill="#FFF" fill-rule="nonzero"/>
</svg>
