<svg width="14" height="12" viewBox="0 0 14 12" fill="none" xmlns="http://www.w3.org/2000/svg">
<path d="M14 6L13.998 5.965L13.9987 5.94931L13.997 5.942L13.995 5.917L13.9933 5.88338L13.987 5.85L13.9858 5.83179L13.983 5.822L13.978 5.8L13.9736 5.77071L13.965 5.745L13.9591 5.71615L13.956 5.708L13.946 5.681L13.9417 5.66274L13.93 5.636L13.9184 5.60371L13.913 5.594L13.905 5.577L13.8984 5.56023L13.876 5.521L13.8638 5.49579L13.86 5.491L13.8553 5.48144L13.85 5.475L13.8443 5.46391L13.812 5.419L13.7954 5.39372L13.79 5.389L13.782 5.377C13.7574 5.34601 13.733 5.31875 13.7071 5.29289L13.701 5.288L8.79578 0.298822C8.43832 -0.0646588 7.87134 -0.0971233 7.47652 0.204616L7.38162 0.287014C6.98785 0.674264 6.98256 1.30741 7.36981 1.70118L10.615 5.001L1 5C0.487164 5 0.0644933 5.38604 0.00672817 5.88338L0 6C0 6.55229 0.447715 7 1 7L10.614 7.001L7.36981 10.2988C7.01235 10.6623 6.98935 11.2297 7.29764 11.6195L7.38162 11.713C7.77539 12.1002 8.40853 12.0949 8.79578 11.7012L13.701 6.713C13.733 6.68126 13.7574 6.65399 13.7803 6.62545L13.782 6.624L13.79 6.612L13.812 6.581L13.8443 6.53609L13.85 6.526L13.86 6.51L13.876 6.48L13.8984 6.43977L13.905 6.424L13.9117 6.41157L13.9184 6.39629L13.93 6.365L13.9417 6.33726L13.946 6.32L13.9542 6.29982L13.956 6.293L13.965 6.256L13.9736 6.22929L13.978 6.201L13.9829 6.18464L13.9858 6.16821L13.987 6.151L13.9933 6.11662L13.995 6.083L13.9977 6.06736L13.997 6.059L13.998 6.036L14 6Z" fill="white"/>
</svg>
