<svg width="16" height="14" viewBox="0 0 16 14" fill="none" xmlns="http://www.w3.org/2000/svg">
<path d="M1.50222 6.78426L2.41955 7.18239L2.41986 7.18166L1.50222 6.78426ZM1.5039 6.78041L2.41837 7.18507L2.41844 7.18491L1.5039 6.78041ZM1.51335 6.7602L2.41034 7.20224L2.41035 7.20224L1.51335 6.7602ZM1.60397 6.6294L2.33397 7.31285C2.71136 6.90975 2.6906 6.27705 2.28759 5.89956C1.88458 5.52208 1.25188 5.54269 0.874296 5.94561L1.60397 6.6294ZM1.59339 6.64104L0.844005 5.9789C0.478374 6.39271 0.517362 7.02456 0.931094 7.39028C1.34483 7.756 1.97668 7.71715 2.34249 7.30349L1.59339 6.64104ZM1.61329 6.6197L0.900307 5.91852L0.900301 5.91853L1.61329 6.6197ZM6.53049 1.6197L5.8175 0.91852L5.8175 0.91852L6.53049 1.6197ZM7.29751 1.61329L6.59633 2.32628L6.59633 2.32628L7.29751 1.61329ZM7.30391 2.38031L6.59093 1.67913L6.59092 1.67913L7.30391 2.38031ZM3.29413 6.45762L2.58114 5.75644C2.2986 6.04374 2.2161 6.47254 2.37185 6.84416C2.5276 7.21578 2.89118 7.45762 3.29413 7.45762L3.29413 6.45762ZM3.29413 7.54239L3.29413 6.54239C2.89118 6.54239 2.5276 6.78423 2.37185 7.15585C2.2161 7.52748 2.2986 7.95627 2.58114 8.24357L3.29413 7.54239ZM7.30391 11.6197L6.59092 12.3209L6.59093 12.3209L7.30391 11.6197ZM6.53049 12.3803L7.24347 11.6791L7.24347 11.6791L6.53049 12.3803ZM1.61525 7.3823L2.32825 6.68112L2.32462 6.67747L1.61525 7.3823ZM1.60199 7.36848L2.33563 6.68895L2.33527 6.68856L1.60199 7.36848ZM1.51971 7.25231L2.40489 6.78705L2.40482 6.78691L1.51971 7.25231ZM1.50512 7.22234L2.41734 6.81264L2.41733 6.81261L1.50512 7.22234ZM1.50175 7.21467L2.42023 6.81921L2.41995 6.81855L1.50175 7.21467ZM0.584887 6.38613C0.502681 6.57554 0.457611 6.78382 0.457611 7.00001H2.45761C2.45761 7.06285 2.44436 7.12522 2.41954 7.18239L0.584887 6.38613ZM2.41986 7.18166C2.41886 7.18398 2.41818 7.1855 2.41837 7.18507L0.589434 6.37576C0.588491 6.37789 0.586687 6.38197 0.584571 6.38686L2.41986 7.18166ZM2.41844 7.18491C2.41587 7.19072 2.41317 7.1965 2.41034 7.20224L0.616355 6.31816C0.606934 6.33728 0.597937 6.35653 0.589364 6.37592L2.41844 7.18491ZM2.41035 7.20224C2.39042 7.24267 2.36455 7.28022 2.33364 7.3132L0.874296 5.94561C0.76869 6.0583 0.682401 6.18413 0.616351 6.31817L2.41035 7.20224ZM0.873968 5.94596C0.863791 5.95683 0.853803 5.96781 0.844005 5.9789L2.34277 7.30317C2.33992 7.3064 2.33699 7.30963 2.33397 7.31285L0.873968 5.94596ZM2.34249 7.30349C2.3372 7.30947 2.3318 7.31527 2.32628 7.32087L0.900301 5.91853C0.881065 5.93809 0.862391 5.95811 0.84429 5.97858L2.34249 7.30349ZM2.32628 7.32088L7.24347 2.32088L5.8175 0.91852L0.900307 5.91852L2.32628 7.32088ZM7.24347 2.32088C7.06626 2.50107 6.77653 2.50349 6.59633 2.32628L7.99869 0.900311C7.39134 0.303016 6.41479 0.311177 5.8175 0.91852L7.24347 2.32088ZM6.59633 2.32628C6.41613 2.14907 6.41371 1.85933 6.59093 1.67913L8.0169 3.08149C8.61419 2.47415 8.60603 1.49759 7.99868 0.900307L6.59633 2.32628ZM6.59092 1.67913L2.58114 5.75644L4.00711 7.1588L8.0169 3.08149L6.59092 1.67913ZM14 5.45762L3.29413 5.45762L3.29413 7.45762L14 7.45762V5.45762ZM15.5424 7.00001C15.5424 6.14817 14.8518 5.45762 14 5.45762V7.45762C13.7473 7.45762 13.5424 7.25274 13.5424 7.00001H15.5424ZM14 8.54239C14.8518 8.54239 15.5424 7.85184 15.5424 7.00001H13.5424C13.5424 6.74727 13.7473 6.54239 14 6.54239V8.54239ZM3.29413 8.54239H14V6.54239L3.29413 6.54239L3.29413 8.54239ZM8.0169 10.9185L4.00711 6.84121L2.58114 8.24357L6.59092 12.3209L8.0169 10.9185ZM7.99868 13.0997C8.60603 12.5024 8.61419 11.5259 8.0169 10.9185L6.59093 12.3209C6.41371 12.1407 6.41613 11.8509 6.59633 11.6737L7.99868 13.0997ZM5.8175 13.0815C6.41479 13.6888 7.39134 13.697 7.99868 13.0997L6.59633 11.6737C6.77652 11.4965 7.06626 11.4989 7.24347 11.6791L5.8175 13.0815ZM0.902264 8.08348L5.8175 13.0815L7.24347 11.6791L2.32824 6.68113L0.902264 8.08348ZM0.868345 8.04802C0.880662 8.06131 0.893176 8.07435 0.905879 8.08714L2.32462 6.67747C2.32832 6.68119 2.33199 6.68502 2.33563 6.68895L0.868345 8.04802ZM2.33527 6.68856C2.36269 6.71813 2.38612 6.75135 2.40489 6.78705L0.634543 7.71758C0.696768 7.83596 0.775054 7.9474 0.868702 8.0484L2.33527 6.68856ZM0.592908 7.63205C0.605877 7.66093 0.61978 7.6895 0.634613 7.71771L2.40482 6.78691C2.40927 6.79539 2.41345 6.80397 2.41734 6.81264L0.592908 7.63205ZM0.583263 7.61012C0.586417 7.61745 0.589635 7.62477 0.592918 7.63208L2.41733 6.81261C2.41832 6.81482 2.41929 6.81702 2.42023 6.81921L0.583263 7.61012ZM0.457611 7.00001C0.457611 7.215 0.502186 7.42219 0.583549 7.61079L2.41995 6.81855C2.44451 6.87548 2.45761 6.93752 2.45761 7.00001H0.457611Z" fill="white"/>
</svg>
