<svg width="21" height="21" viewBox="0 0 21 21" fill="none" xmlns="http://www.w3.org/2000/svg">
<path d="M10.9444 0.613125L13.2444 5.61313C13.3444 5.91313 13.6444 6.11313 13.9444 6.21313L19.1444 7.01313C20.0444 7.01313 20.3444 8.01313 19.7444 8.61313L15.9444 12.5131C15.7444 12.7131 15.6444 13.1131 15.6444 13.4131L16.5444 18.8131C16.6444 19.6131 15.8444 20.3131 15.1444 19.9131L10.4444 17.3131C10.1444 17.1131 9.84444 17.1131 9.54444 17.3131L4.84444 19.9131C4.14444 20.3131 3.24444 19.7131 3.44444 18.8131L4.34444 13.4131C4.44444 13.1131 4.24444 12.7131 4.04444 12.5131L0.244444 8.61313C-0.255556 8.01313 0.0444444 7.01313 0.844444 6.91313L6.04444 6.11313C6.34444 6.11313 6.64444 5.81313 6.74444 5.51313L9.04444 0.513125C9.54444 -0.186875 10.5444 -0.186875 10.9444 0.613125Z" fill="#F8CA00"/>
</svg>
