<svg width="23" height="24" viewBox="0 0 23 24" fill="none" xmlns="http://www.w3.org/2000/svg">
<path fill-rule="evenodd" clip-rule="evenodd" d="M11.3755 3.96918e-05C6.44694 -0.00398216 2.07747 3.16894 0.555944 7.85672C-0.965585 12.5445 0.707603 17.6787 4.69903 20.5699L5.06608 24L7.9638 22.2272C12.2371 23.5704 16.9008 22.2806 19.8767 18.9327C22.8527 15.5848 23.5868 10.8021 21.7519 6.71572C19.9171 2.62938 15.8549 0.00029638 11.3755 3.75111e-06L11.3755 3.96918e-05ZM8.55202 6.75491L10.0357 8.23856C10.2275 8.43044 10.3353 8.69069 10.3353 8.96204C10.3352 9.23339 10.2273 9.4936 10.0354 9.68539V9.68539C9.84339 9.87718 9.73551 10.1374 9.73544 10.4087C9.73538 10.6801 9.84315 10.9403 10.035 11.1322L12.2384 13.3356C12.4302 13.5274 12.6904 13.6352 12.9617 13.6352C13.233 13.6352 13.4931 13.5274 13.6849 13.3356L13.6856 13.335C13.8774 13.1432 14.1376 13.0354 14.4088 13.0354C14.6801 13.0354 14.9403 13.1432 15.1321 13.335L16.6205 14.8234C16.8124 15.0152 16.9201 15.2754 16.9201 15.5467C16.9201 15.818 16.8124 16.0781 16.6205 16.2699L16.0961 16.7943C15.9588 16.9317 15.7856 17.0276 15.5963 17.0711V17.0711C12.9936 17.6694 10.2663 16.8859 8.37791 14.9975C6.48954 13.1092 5.70608 10.3818 6.30434 7.77916V7.77916C6.34785 7.58988 6.44375 7.41667 6.58108 7.27934L7.10549 6.75493C7.29731 6.56311 7.55747 6.45534 7.82875 6.45533C8.10003 6.45533 8.36019 6.56309 8.55202 6.75491Z" fill="white"/>
</svg>
